<mxfile host="app.diagrams.net" modified="2023-11-25T19:47:37.537Z" agent="Mozilla/5.0 (Windows NT 10.0; Win64; x64) AppleWebKit/537.36 (KHTML, like Gecko) Chrome/119.0.0.0 Safari/537.36" etag="C7GdNzMDhmXTCaQWw0em" version="22.1.4" type="github">
  <diagram name="Page-1" id="UA9s1cxC764myxrwg9mr">
    <mxGraphModel dx="794" dy="464" grid="1" gridSize="10" guides="1" tooltips="1" connect="1" arrows="1" fold="1" page="1" pageScale="1" pageWidth="850" pageHeight="1100" math="0" shadow="0">
      <root>
        <mxCell id="0" />
        <mxCell id="1" parent="0" />
        <mxCell id="syIPH7W3HjAMBqQeknpH-2" style="edgeStyle=orthogonalEdgeStyle;rounded=0;orthogonalLoop=1;jettySize=auto;html=1;" parent="1" source="syIPH7W3HjAMBqQeknpH-1" edge="1">
          <mxGeometry relative="1" as="geometry">
            <mxPoint x="300" y="120" as="targetPoint" />
          </mxGeometry>
        </mxCell>
        <mxCell id="syIPH7W3HjAMBqQeknpH-1" value="start" style="rounded=1;whiteSpace=wrap;html=1;" parent="1" vertex="1">
          <mxGeometry x="240" y="20" width="120" height="60" as="geometry" />
        </mxCell>
        <mxCell id="syIPH7W3HjAMBqQeknpH-4" style="edgeStyle=orthogonalEdgeStyle;rounded=0;orthogonalLoop=1;jettySize=auto;html=1;" parent="1" source="syIPH7W3HjAMBqQeknpH-3" edge="1">
          <mxGeometry relative="1" as="geometry">
            <mxPoint x="300" y="350" as="targetPoint" />
          </mxGeometry>
        </mxCell>
        <mxCell id="syIPH7W3HjAMBqQeknpH-3" value="num" style="shape=card;whiteSpace=wrap;html=1;" parent="1" vertex="1">
          <mxGeometry x="240" y="230" width="120" height="80" as="geometry" />
        </mxCell>
        <mxCell id="syIPH7W3HjAMBqQeknpH-6" style="edgeStyle=orthogonalEdgeStyle;rounded=0;orthogonalLoop=1;jettySize=auto;html=1;entryX=1;entryY=0.5;entryDx=0;entryDy=0;" parent="1" target="syIPH7W3HjAMBqQeknpH-8" edge="1">
          <mxGeometry relative="1" as="geometry">
            <mxPoint x="450" y="280" as="targetPoint" />
            <Array as="points">
              <mxPoint x="480" y="395" />
              <mxPoint x="480" y="350" />
            </Array>
            <mxPoint x="360" y="395" as="sourcePoint" />
          </mxGeometry>
        </mxCell>
        <mxCell id="syIPH7W3HjAMBqQeknpH-7" value="true" style="edgeLabel;html=1;align=center;verticalAlign=middle;resizable=0;points=[];" parent="syIPH7W3HjAMBqQeknpH-6" vertex="1" connectable="0">
          <mxGeometry x="0.0313" y="1" relative="1" as="geometry">
            <mxPoint as="offset" />
          </mxGeometry>
        </mxCell>
        <mxCell id="syIPH7W3HjAMBqQeknpH-9" value="" style="edgeStyle=orthogonalEdgeStyle;rounded=0;orthogonalLoop=1;jettySize=auto;html=1;" parent="1" edge="1">
          <mxGeometry relative="1" as="geometry">
            <mxPoint x="300" y="490" as="targetPoint" />
            <mxPoint x="300" y="440" as="sourcePoint" />
          </mxGeometry>
        </mxCell>
        <mxCell id="syIPH7W3HjAMBqQeknpH-10" value="false" style="edgeLabel;html=1;align=center;verticalAlign=middle;resizable=0;points=[];" parent="syIPH7W3HjAMBqQeknpH-9" vertex="1" connectable="0">
          <mxGeometry x="-0.0807" y="1" relative="1" as="geometry">
            <mxPoint as="offset" />
          </mxGeometry>
        </mxCell>
        <mxCell id="syIPH7W3HjAMBqQeknpH-8" value="sum=sum+num" style="whiteSpace=wrap;html=1;direction=south;" parent="1" vertex="1">
          <mxGeometry x="425" y="300" width="100" height="50" as="geometry" />
        </mxCell>
        <mxCell id="syIPH7W3HjAMBqQeknpH-11" style="edgeStyle=orthogonalEdgeStyle;rounded=0;orthogonalLoop=1;jettySize=auto;html=1;exitX=0;exitY=0.5;exitDx=0;exitDy=0;entryX=1;entryY=0.5;entryDx=0;entryDy=0;entryPerimeter=0;" parent="1" source="syIPH7W3HjAMBqQeknpH-8" target="syIPH7W3HjAMBqQeknpH-3" edge="1">
          <mxGeometry relative="1" as="geometry" />
        </mxCell>
        <mxCell id="syIPH7W3HjAMBqQeknpH-13" value="" style="edgeStyle=orthogonalEdgeStyle;rounded=0;orthogonalLoop=1;jettySize=auto;html=1;" parent="1" source="syIPH7W3HjAMBqQeknpH-12" target="syIPH7W3HjAMBqQeknpH-3" edge="1">
          <mxGeometry relative="1" as="geometry" />
        </mxCell>
        <mxCell id="syIPH7W3HjAMBqQeknpH-12" value="sum=0" style="rounded=0;whiteSpace=wrap;html=1;" parent="1" vertex="1">
          <mxGeometry x="240" y="120" width="120" height="60" as="geometry" />
        </mxCell>
        <mxCell id="syIPH7W3HjAMBqQeknpH-15" style="edgeStyle=orthogonalEdgeStyle;rounded=0;orthogonalLoop=1;jettySize=auto;html=1;" parent="1" source="syIPH7W3HjAMBqQeknpH-14" target="syIPH7W3HjAMBqQeknpH-16" edge="1">
          <mxGeometry relative="1" as="geometry">
            <mxPoint x="300" y="610" as="targetPoint" />
          </mxGeometry>
        </mxCell>
        <mxCell id="syIPH7W3HjAMBqQeknpH-14" value="sum" style="shape=document;whiteSpace=wrap;html=1;boundedLbl=1;" parent="1" vertex="1">
          <mxGeometry x="240" y="490" width="120" height="80" as="geometry" />
        </mxCell>
        <mxCell id="syIPH7W3HjAMBqQeknpH-16" value="stop" style="rounded=1;whiteSpace=wrap;html=1;" parent="1" vertex="1">
          <mxGeometry x="240" y="600" width="120" height="60" as="geometry" />
        </mxCell>
        <mxCell id="pdNxyEy3rCJaF-FDzrFt-1" value="num&amp;gt;0" style="ellipse;whiteSpace=wrap;html=1;aspect=fixed;" vertex="1" parent="1">
          <mxGeometry x="260" y="350" width="80" height="80" as="geometry" />
        </mxCell>
      </root>
    </mxGraphModel>
  </diagram>
</mxfile>
